<svg width="88" height="87" viewBox="0 0 88 87" fill="none" xmlns="http://www.w3.org/2000/svg"><g clip-path="url(#clip0_159_4686)"><path fill-rule="evenodd" clip-rule="evenodd" d="M85.2 45.2H44c-1.1 0-2-.8-2-1.9V2.1c0-1.1.9-2 2-2h41.2c1 0 1.9.9 1.9 2v41.2c0 1.1-.9 1.9-1.9 1.9zm-39.3-3.9h37.3V4H45.9v37.3z" fill="#121212"/><path d="M23.4 22.7h41.2v41.2H23.4V22.7z" fill="#DFFF9C"/><path fill-rule="evenodd" clip-rule="evenodd" d="M44 86.4H2.8c-1.1 0-2-.8-2-1.9V43.3c0-1.1.9-2 2-2H44c1 0 1.9.9 1.9 2v41.2c0 1.1-.9 1.9-1.9 1.9zM4.7 82.5H42V45.2H4.7v37.3z" fill="#121212"/></g><defs><clipPath id="clip0_159_4686"><path fill="#fff" transform="translate(.5)" d="M0 0h87v87H0z"/></clipPath></defs></svg>