<svg width="97" height="89" viewBox="0 0 97 89" fill="none" xmlns="http://www.w3.org/2000/svg"><g clip-path="url(#clip0_159_4698)"><path d="M48.5 28.1H2.6V2.6h45.9v25.5z" fill="#DFFF9C"/><path fill-rule="evenodd" clip-rule="evenodd" d="M48.5 30.1H2.6c-1.1 0-2-.9-2-2V2.6c0-1.1.9-2 2-2h45.9c1.1 0 2 .9 2 2v25.5c0 1.1-.9 2-2 2zM4.6 26.2h42V4.6h-42v21.6z" fill="#121212"/><path d="M94.4 57.6H48.5V32h45.9v25.6z" fill="#DFFF9C"/><path fill-rule="evenodd" clip-rule="evenodd" d="M94.4 59.5H48.5c-1.1 0-1.9-.9-1.9-1.9V32c0-1.1.8-2 1.9-2h45.9c1.1 0 2 .9 2 2v25.6c0 1-.9 1.9-2 1.9zm-43.9-3.9h42V34h-42v21.6z" fill="#121212"/><path fill-rule="evenodd" clip-rule="evenodd" d="M94.4 88.9H2.6c-1.1 0-2-.8-2-1.9V28.1c0-1 .9-1.9 2-1.9h45.9c1.1 0 2 .9 2 1.9v27.5h43.9c1.1 0 2 .9 2 2V87c0 1.1-.9 1.9-2 1.9zM4.6 85h87.9V59.5h-44c-1.1 0-1.9-.9-1.9-1.9V30.1h-42V85z" fill="#121212"/></g><defs><clipPath id="clip0_159_4698"><path fill="#fff" transform="translate(.5)" d="M0 0h96v89H0z"/></clipPath></defs></svg>